Coordinates
version=1
nRows=32
nColumns=12
inDegrees=yes

Units are S.I. units (second, meters, Newtons, ...)
Angles are in degrees

endheader
time	SC_y	SC_z	SC_x	AC_y	AC_z	AC_x	GH_y	GH_z	GH_yy	EL_x	PS_y
       0.0              -30.21         -4.732          33.96          41.87          2.748         -1.272          44.95          6.295         -63.82          51.15          5.548
   0.04488              -30.21         -4.729          33.96          41.87          2.747         -1.269          44.96          6.292         -63.83          51.15          5.569
   0.08977              -30.21         -4.727          33.96          41.88          2.747         -1.266          44.98          6.289         -63.85          51.15          5.592
    0.1347              -30.21         -4.724          33.96          41.88          2.746         -1.263           45.0          6.286         -63.86          51.15          5.617
    0.1795              -30.21         -4.722          33.95          41.88          2.746         -1.259          45.02          6.283         -63.88          51.16          5.643
    0.2244              -30.21         -4.719          33.95          41.89          2.745         -1.255          45.04           6.28         -63.89          51.16           5.67
    0.2693               -30.2         -4.715          33.95          41.89          2.745         -1.251          45.06          6.276         -63.91          51.16            5.7
    0.3142               -30.2         -4.712          33.94           41.9          2.744         -1.247          45.08          6.272         -63.93          51.16          5.732
    0.3591               -30.2         -4.708          33.94           41.9          2.744         -1.242          45.11          6.268         -63.95          51.17          5.766
     0.404               -30.2         -4.704          33.94          41.91          2.743         -1.237          45.13          6.264         -63.97          51.17          5.802
    0.4488               -30.2           -4.7          33.93          41.91          2.742         -1.231          45.16          6.259         -63.99          51.17          5.841
    0.4937               -30.2         -4.695          33.93          41.92          2.741         -1.226          45.19          6.254         -64.02          51.18          5.883
    0.5386              -30.19         -4.691          33.92          41.93           2.74         -1.219          45.23          6.249         -64.05          51.18          5.928
    0.5835              -30.19         -4.685          33.92          41.93           2.74         -1.213          45.26          6.243         -64.08          51.18          5.977
    0.6284              -30.19          -4.68          33.91          41.94          2.739         -1.205           45.3          6.236         -64.11          51.19           6.03
    0.6733              -30.19         -4.673          33.91          41.95          2.738         -1.197          45.34          6.229         -64.14          51.19          6.088
    0.7181              -30.18         -4.667           33.9          41.96          2.736         -1.189          45.39          6.222         -64.18           51.2           6.15
     0.763              -30.18         -4.659          33.89          41.97          2.735         -1.179          45.44          6.213         -64.22          51.21          6.218
    0.8079              -30.18         -4.651          33.88          41.98          2.734         -1.169          45.49          6.204         -64.26          51.21          6.292
    0.8528              -30.17         -4.642          33.87          41.99          2.732         -1.158          45.55          6.194         -64.31          51.22          6.374
    0.8977              -30.17         -4.633          33.86          42.01          2.731         -1.145          45.62          6.184         -64.36          51.23          6.463
    0.9426              -30.16         -4.622          33.85          42.02          2.729         -1.132          45.69          6.172         -64.42          51.24          6.561
    0.9874              -30.16          -4.61          33.84          42.04          2.727         -1.116          45.77          6.158         -64.49          51.25           6.67
     1.032              -30.15         -4.597          33.83          42.06          2.724           -1.1          45.86          6.144         -64.56          51.26           6.79
     1.077              -30.15         -4.583          33.81          42.08          2.722         -1.081          45.96          6.128         -64.64          51.27          6.924
     1.122              -30.14         -4.567           33.8           42.1          2.719         -1.061          46.07          6.109         -64.72          51.28          7.073
     1.167              -30.13         -4.549          33.78          42.12          2.716         -1.037          46.19          6.089         -64.82          51.29           7.24
     1.212              -30.12         -4.528          33.76          42.15          2.713         -1.011          46.33          6.066         -64.94          51.31          7.428
     1.257              -30.11         -4.505          33.74          42.18          2.709        -0.9817          46.49          6.041         -65.06          51.33          7.641
     1.302               -30.1         -4.479          33.71          42.22          2.704        -0.9483          46.67          6.011          -65.2          51.35          7.882
     1.347              -30.09         -4.449          33.68          42.26          2.699        -0.9101          46.87          5.978         -65.37          51.37          8.157
     1.391              -30.07         -4.415          33.65          42.31          2.693        -0.8662           47.1          5.939         -65.55           51.4          8.473
